<svg width="70" height="49" viewBox="0 0 70 49" fill="none" xmlns="http://www.w3.org/2000/svg">
<path d="M25.4969 27.5449C25.4011 26.8559 25.0834 26.2169 24.5919 25.7246C24.1003 25.2324 23.4618 24.9137 22.7729 24.8169C23.4155 24.5441 23.9551 24.0748 24.314 23.4761C24.7588 21.8343 24.5703 20.0854 23.7859 18.5762C22.7559 16.4922 20.386 16.2952 18.486 16.2612C16.586 16.2272 13.0039 15.9951 13.0039 15.9951C13.1815 16.6137 13.4817 17.1902 13.8866 17.6904C14.2915 18.1907 14.7929 18.6046 15.361 18.9072H19.3829C19.8419 18.8781 20.2962 19.0143 20.6632 19.2915C21.0302 19.5688 21.2855 19.9685 21.3829 20.418C21.8929 22.105 21.383 23.0271 20.559 23.2041H19.068C19.068 23.2041 18.473 21.016 18.381 20.77C18.145 20.142 17.794 19.4991 16.34 19.8281C14.868 20.1611 15.3849 22.0151 15.3849 22.0151L17.9729 33.1152L22.8429 32.7402C25.8029 31.8952 26.0859 30.4109 25.4969 27.5449ZM22.835 28.8608C22.717 30.2148 21.147 30.1548 21.147 30.1548H20.323L19.4989 25.916H21.304C21.8481 26.1695 22.2932 26.5958 22.5701 27.1284C22.8469 27.661 22.9401 28.2698 22.835 28.8608Z" fill="white"/>
<path d="M26.1504 20.1071H29.3694L30.0174 30.6261C30.0615 30.898 30.1926 31.1484 30.3909 31.3395C30.5892 31.5306 30.8441 31.6521 31.1174 31.6862C32.0984 31.8232 31.9614 30.3122 31.9614 30.3122L31.6674 21.1281C31.6768 20.7233 31.8404 20.3372 32.1248 20.049C32.4091 19.7607 32.7928 19.5922 33.1974 19.5773C33.3922 19.5624 33.5878 19.5885 33.7716 19.6545C33.9554 19.7204 34.1233 19.8244 34.2641 19.9596C34.4049 20.0949 34.5156 20.2586 34.5889 20.4396C34.6622 20.6206 34.6964 20.8148 34.6894 21.0099C34.6894 21.0099 34.6284 32.0582 34.7464 32.7262L34.7904 33.1213H33.0814C32.8546 33.0519 32.644 32.9378 32.462 32.7858C32.2799 32.6338 32.1302 32.4468 32.0214 32.236C31.7952 32.6506 31.4598 32.9953 31.0515 33.2326C30.6431 33.4699 30.1776 33.5909 29.7054 33.5822C29.0579 33.6037 28.4267 33.3766 27.9413 32.9474C27.456 32.5182 27.1533 31.9194 27.0954 31.2741C26.9354 29.7831 26.1504 20.1071 26.1504 20.1071Z" fill="white"/>
<path d="M54.5309 17.4561H57.9969L54.5279 26.0117C54.5279 26.0117 54.0349 26.7988 53.2989 26.6348C52.3359 26.4178 52.7169 25.1289 52.7169 25.1289L54.5309 17.4561Z" fill="white"/>
<path d="M52.8629 29.6867C53.5206 29.6867 54.0539 29.1535 54.0539 28.4957C54.0539 27.8379 53.5206 27.3047 52.8629 27.3047C52.2051 27.3047 51.6719 27.8379 51.6719 28.4957C51.6719 29.1535 52.2051 29.6867 52.8629 29.6867Z" fill="white"/>
<path d="M43.1262 17.2944C42.1532 17.2944 41.4072 18.5605 41.4072 18.5605C41.4072 18.5605 41.6562 16.8604 38.7832 16.8604C35.9102 16.8604 35.8652 21.3394 35.8652 24.2354C35.8652 27.1314 37.2572 27.5356 38.4212 27.5356C38.8444 27.5227 39.2602 27.4213 39.642 27.2383C40.0238 27.0552 40.3631 26.7945 40.6382 26.4727C40.6382 29.6617 39.6382 29.8887 39.2382 29.8887C38.9826 29.8395 38.7527 29.7012 38.5894 29.4985C38.426 29.2958 38.3399 29.0415 38.3462 28.7812C38.3604 28.6168 38.3367 28.4516 38.2769 28.2979C38.2171 28.1441 38.1228 28.0062 38.0013 27.8945C37.8798 27.7829 37.7343 27.7004 37.576 27.6538C37.4177 27.6072 37.2508 27.5975 37.0882 27.6255C36.3572 27.6445 35.7762 28.8024 36.1612 29.7754C36.5462 30.7484 37.3612 31.4033 39.8712 31.4033C42.3812 31.4033 42.9252 28.7344 42.9252 28.7344L44.2372 17.2983C44.2372 17.2983 44.0992 17.2944 43.1262 17.2944ZM41.0322 22.0532C40.8692 23.8062 40.8082 25.7534 39.6192 25.7534C38.3432 25.7534 38.7112 23.5474 38.7832 21.9624C38.8482 20.5394 39.1012 18.9482 40.0492 18.9482C41.2772 18.9442 41.1732 20.5362 41.0362 22.0542L41.0322 22.0532Z" fill="white"/>
<path d="M44.1293 27.3037H46.5483C46.5483 27.3037 45.9883 29.127 46.8983 29.144C47.8083 29.161 48.1583 28.077 48.1583 27.604C48.1583 27.131 47.9133 26.5707 46.1803 25.3447C44.4473 24.1187 44.9903 21.7387 44.9903 21.7387C45.1249 20.9625 45.4632 20.2359 45.9706 19.6332C46.478 19.0306 47.1363 18.5739 47.8783 18.309C50.4693 17.363 51.4873 19.0887 51.6693 19.5737C51.8337 20.4505 51.7944 21.3536 51.5543 22.2128C51.457 22.5356 51.239 22.8084 50.9456 22.9746C50.6523 23.1407 50.3061 23.1875 49.9793 23.1049C49.2093 22.8949 49.0513 22.3337 49.1393 21.9667C49.2273 21.5997 49.4023 20.6669 49.1393 20.4799C48.8763 20.2929 48.1943 20.1288 47.8093 21.1098C47.5961 21.5094 47.5444 21.9755 47.665 22.4121C47.7856 22.8486 48.0692 23.2225 48.4573 23.456C49.3153 24.068 50.5863 24.8759 50.5333 26.5649C50.5293 27.3627 50.3294 28.1475 49.9512 28.85C49.573 29.5526 49.0281 30.1511 48.3643 30.5937C47.8742 30.8406 47.3399 30.9878 46.7925 31.0268C46.2451 31.0658 45.6955 30.9957 45.1753 30.8208C44.8635 30.7395 44.5815 30.5708 44.3629 30.3339C44.1443 30.0971 43.9983 29.8022 43.9423 29.4848C43.8394 28.753 43.9033 28.0073 44.1293 27.3037Z" fill="white"/>
</svg>
