<svg width="80" height="56" viewBox="0 0 80 56" fill="none" xmlns="http://www.w3.org/2000/svg">
<path d="M60.3921 24.0962L54.8101 22.126L54.1528 20.5381L56.4893 14.9292C56.5674 14.7415 56.5879 14.5349 56.5483 14.3354C56.5088 14.136 56.4109 13.9528 56.2671 13.8091L53.3672 10.9092C53.2252 10.7667 53.0442 10.6688 52.8472 10.6284C52.6501 10.588 52.4454 10.607 52.2588 10.6821L46.4683 13.0151L44.9302 12.2798L42.604 6.63184C42.5267 6.44396 42.3954 6.28347 42.2266 6.17041C42.0578 6.05735 41.8594 5.99705 41.6562 5.99707H37.0562C36.844 5.99714 36.637 6.06305 36.4639 6.18555C36.2907 6.30804 36.1596 6.48117 36.0889 6.68115L34.1201 12.2632L32.5312 12.9209L26.9229 10.584C26.7352 10.5057 26.5285 10.4849 26.3291 10.5244C26.1297 10.5639 25.9468 10.6622 25.8032 10.8062L22.5532 14.0571C22.4055 14.2046 22.3062 14.3937 22.269 14.5991C22.2319 14.8045 22.2585 15.0162 22.3452 15.2061L24.6909 20.3672L24.1812 22.1802L18.6309 24.4648C18.4431 24.5425 18.2825 24.6744 18.1694 24.8433C18.0564 25.0122 17.9963 25.2108 17.9961 25.4141V30.0142C17.9961 30.223 18.0599 30.4265 18.1787 30.5981C18.2975 30.7698 18.4657 30.9015 18.6611 30.9751L23.9692 32.9648L24.8911 34.6079L22.582 40.1479C22.5037 40.3355 22.4826 40.5423 22.522 40.7417C22.5613 40.9411 22.6595 41.1243 22.8032 41.2681L26.0552 44.519C26.2056 44.6706 26.3994 44.7713 26.6099 44.8071C26.8204 44.843 27.0369 44.812 27.229 44.7188L32.6401 42.0811L34.1401 42.7969L36.4658 48.4438C36.5432 48.6316 36.675 48.7922 36.8438 48.9053C37.0125 49.0183 37.2109 49.079 37.4141 49.0791H42.0142C42.2264 49.0792 42.4336 49.0136 42.6069 48.8911C42.7803 48.7686 42.9112 48.5952 42.9819 48.395L44.9521 42.813L46.54 42.1558L52.1489 44.4922C52.3367 44.57 52.5433 44.59 52.7427 44.5503C52.9421 44.5106 53.1254 44.4129 53.269 44.269L56.52 41.019C56.6717 40.8687 56.7727 40.6744 56.8086 40.4639C56.8445 40.2533 56.8136 40.0373 56.7202 39.8452L54.082 34.4331L54.7988 32.9331L60.4458 30.6069C60.6338 30.5297 60.7946 30.3983 60.9077 30.2295C61.0208 30.0607 61.0812 29.8624 61.0811 29.6592V25.0591C61.0798 24.847 61.013 24.6407 60.8896 24.4683C60.7663 24.2958 60.5924 24.1658 60.3921 24.0962ZM39.5381 34.9419C37.5765 34.9385 35.6961 34.158 34.3091 32.771C32.9221 31.384 32.1416 29.5035 32.1382 27.542C32.1414 25.5804 32.922 23.7001 34.3091 22.313C35.6962 20.9259 37.5765 20.1453 39.5381 20.1421C41.4997 20.1453 43.38 20.9259 44.7671 22.313C46.1542 23.7001 46.9348 25.5804 46.938 27.542C46.9346 29.5037 46.1538 31.3839 44.7666 32.771C43.3794 34.1581 41.4998 34.9387 39.5381 34.9419Z" fill="white"/>
</svg>
