<svg width="20" height="28" viewBox="0 0 20 28" fill="none" xmlns="http://www.w3.org/2000/svg">
<path d="M11.1782 5.24487C11.1782 4.59483 10.6513 4.06787 10.0012 4.06787C9.35118 4.06787 8.82422 4.59483 8.82422 5.24487V11.1299C8.82422 11.7799 9.35118 12.3069 10.0012 12.3069C10.6513 12.3069 11.1782 11.7799 11.1782 11.1299V5.24487Z" fill="white"/>
<path d="M7.05786 7.01075C6.40782 7.01075 5.88086 7.53771 5.88086 8.18775C5.88086 8.83779 6.40782 9.36475 7.05786 9.36475H12.9429C13.5929 9.36475 14.1199 8.83779 14.1199 8.18775C14.1199 7.53771 13.5929 7.01075 12.9429 7.01075H7.05786Z" fill="white"/>
<path d="M6.62958 17.6801C7.51986 17.6801 8.24158 16.9583 8.24158 16.0681C8.24158 15.1778 7.51986 14.4561 6.62958 14.4561C5.7393 14.4561 5.01758 15.1778 5.01758 16.0681C5.01758 16.9583 5.7393 17.6801 6.62958 17.6801Z" fill="white"/>
<path d="M13.3698 17.6801C14.2601 17.6801 14.9818 16.9583 14.9818 16.0681C14.9818 15.1778 14.2601 14.4561 13.3698 14.4561C12.4795 14.4561 11.7578 15.1778 11.7578 16.0681C11.7578 16.9583 12.4795 17.6801 13.3698 17.6801Z" fill="white"/>
<path d="M6.62958 22.3373C7.51986 22.3373 8.24158 21.6156 8.24158 20.7253C8.24158 19.835 7.51986 19.1133 6.62958 19.1133C5.7393 19.1133 5.01758 19.835 5.01758 20.7253C5.01758 21.6156 5.7393 22.3373 6.62958 22.3373Z" fill="white"/>
<path d="M13.3698 22.3373C14.2601 22.3373 14.9818 21.6156 14.9818 20.7253C14.9818 19.835 14.2601 19.1133 13.3698 19.1133C12.4795 19.1133 11.7578 19.835 11.7578 20.7253C11.7578 21.6156 12.4795 22.3373 13.3698 22.3373Z" fill="white"/>
<path d="M10.649 27.1431H9.34912C4.19312 27.1431 -0.00195312 23.336 -0.00195312 18.657V8.55713C0.0713575 6.66152 0.76223 4.84186 1.96545 3.37524C3.16868 1.90863 4.81835 0.875418 6.66309 0.433105C7.74417 0.169216 8.85062 0.0226905 9.96313 -0.00390625C11.0898 0.0252871 12.2105 0.168982 13.3081 0.425049L13.3351 0.432129C15.1798 0.874442 16.8295 1.90741 18.0327 3.37402C19.2359 4.84064 19.9268 6.66054 20.0001 8.55615V18.656C20.0001 23.333 15.805 27.1431 10.649 27.1431ZM9.96313 1.8291C9.00796 1.85546 8.05803 1.98146 7.12903 2.20508C5.67448 2.54381 4.37015 3.34761 3.4137 4.49463C2.45724 5.64165 1.90091 7.06929 1.8291 8.56104V18.6611C1.8291 22.3321 5.20307 25.3181 9.35107 25.3181H10.6511C14.7991 25.3181 18.1731 22.3311 18.1731 18.6611V8.56104C18.1005 7.06941 17.544 5.64215 16.5876 4.49512C15.6313 3.34808 14.3273 2.54379 12.873 2.2041C11.9175 1.98548 10.9429 1.86112 9.96313 1.83301V1.8291Z" fill="white"/>
</svg>
